<?xml version="1.0" encoding="utf-8"?>
<!-- Generator: Adobe Illustrator 24.0.2, SVG Export Plug-In . SVG Version: 6.00 Build 0)  -->
<svg version="1.1" id="Layer_1" xmlns="http://www.w3.org/2000/svg" xmlns:xlink="http://www.w3.org/1999/xlink" x="0px" y="0px"
	 viewBox="0 0 1246 1108" style="enable-background:new 0 0 1246 1108;" xml:space="preserve">
<style type="text/css">
	.st0{fill:none;stroke:#000000;stroke-miterlimit:10;stroke-dasharray:2.9903,2.9903;}
	.st1{fill:#FFFFFF;}
	.st2{fill:none;stroke:#000000;stroke-miterlimit:10;}
	.st3{fill:none;stroke:#000000;stroke-miterlimit:10;stroke-dasharray:1.9862,1.9862;}
	.st4{fill:none;stroke:#000000;stroke-linecap:round;stroke-miterlimit:10;}
	.st5{font-family:'MyriadPro-Regular';}
	.st6{font-size:18.2489px;}
	.st7{font-family:'TimesNewRomanPSMT';}
	.st8{letter-spacing:-1;}
	.st9{fill:none;stroke:#000000;stroke-width:0.5;stroke-miterlimit:10;}
	.st10{fill:none;stroke:#000000;stroke-linecap:round;stroke-miterlimit:10;stroke-dasharray:1.0042,1.0042;}
	.st11{fill:none;stroke:#ED1C24;stroke-linecap:round;stroke-miterlimit:10;}
</style>
<g>
	<circle class="st0" cx="612.19" cy="483.99" r="118.98"/>
</g>
<rect x="557.72" y="581.99" class="st1" width="15.15" height="19.99"/>
<rect x="494.9" y="425.21" class="st1" width="15.15" height="19.99"/>
<rect x="494.9" y="512.98" class="st1" width="15.15" height="24.98"/>
<rect x="654.38" y="581.99" class="st1" width="15.15" height="19.99"/>
<rect x="716.7" y="512.98" class="st1" width="15.15" height="19.99"/>
<rect x="719.58" y="429.71" class="st1" width="9.36" height="15.71"/>
<rect x="553.3" y="362.29" class="st1" width="17.86" height="19.99"/>
<g>
	<g>
		<line class="st2" x1="612.51" y1="483.88" x2="612.89" y2="482.96"/>
		<line class="st3" x1="613.65" y1="481.13" x2="665.04" y2="357.3"/>
		<line class="st2" x1="665.42" y1="356.38" x2="665.8" y2="355.46"/>
		<g>
			<polygon points="668.23,357.41 667.45,351.48 662.7,355.12 			"/>
		</g>
	</g>
</g>
<rect x="618.63" y="447.24" class="st1" width="9.36" height="15.71"/>
<rect x="634.98" y="408.94" class="st1" width="9.36" height="15.71"/>
<rect x="652.6" y="366.57" class="st1" width="9.36" height="15.71"/>
<line class="st4" x1="612.59" y1="639.01" x2="612.59" y2="328.64"/>
<line class="st4" x1="502.85" y1="593.54" x2="722.31" y2="374.08"/>
<line class="st4" x1="722.34" y1="593.55" x2="502.87" y2="374.08"/>
<line class="st4" x1="612.59" y1="328.64" x2="722.31" y2="374.08"/>
<line class="st4" x1="767.78" y1="483.83" x2="722.31" y2="374.08"/>
<line class="st4" x1="722.34" y1="593.55" x2="767.78" y2="483.83"/>
<line class="st4" x1="612.59" y1="639.01" x2="722.34" y2="593.55"/>
<line class="st4" x1="502.85" y1="593.54" x2="612.59" y2="639.01"/>
<line class="st4" x1="457.4" y1="483.83" x2="502.85" y2="593.54"/>
<line class="st4" x1="502.87" y1="374.08" x2="457.4" y2="483.83"/>
<line class="st4" x1="612.59" y1="328.64" x2="502.87" y2="374.08"/>
<line class="st4" x1="612.59" y1="587.28" x2="685.79" y2="557"/>
<line class="st4" x1="716.05" y1="483.83" x2="685.79" y2="557"/>
<line class="st4" x1="685.73" y1="410.66" x2="716.05" y2="483.83"/>
<line class="st4" x1="612.59" y1="380.37" x2="685.73" y2="410.66"/>
<line class="st4" x1="539.45" y1="410.66" x2="612.59" y2="380.37"/>
<line class="st4" x1="509.13" y1="483.83" x2="539.45" y2="410.66"/>
<line class="st4" x1="539.42" y1="556.97" x2="509.13" y2="483.83"/>
<line class="st4" x1="612.59" y1="587.28" x2="539.42" y2="556.97"/>
<line class="st4" x1="576.02" y1="520.37" x2="612.59" y2="535.56"/>
<line class="st4" x1="649.2" y1="520.41" x2="612.59" y2="535.56"/>
<line class="st4" x1="664.32" y1="483.83" x2="649.2" y2="520.41"/>
<line class="st4" x1="649.19" y1="447.27" x2="664.32" y2="483.83"/>
<line class="st4" x1="612.59" y1="432.1" x2="649.19" y2="447.27"/>
<line class="st4" x1="576.03" y1="447.24" x2="612.59" y2="432.1"/>
<line class="st4" x1="560.86" y1="483.83" x2="576.03" y2="447.24"/>
<line class="st4" x1="576.02" y1="520.37" x2="560.86" y2="483.83"/>
<text transform="matrix(1 0 0 1 618.6322 462.4924)" class="st5 st6">1</text>
<text transform="matrix(1 0 0 1 634.9769 422.8234)" class="st5 st6">2</text>
<text transform="matrix(1 0 0 1 652.597 380.1359)" class="st5 st6">3</text>
<text transform="matrix(1 0 0 1 393.1644 344.0275)"><tspan x="0" y="0" class="st7 st6 st8">T</tspan><tspan x="9.87" y="0" class="st7 st6">emplate</tspan><tspan x="8.47" y="21.9" class="st7 st6">Radius</tspan></text>
<text transform="matrix(1 0 0 1 766.1254 435.2062)" class="st7 st6">Crack</text>
<text transform="matrix(1 0 0 1 665.4955 344.0295)" class="st7 st6">Rings</text>
<line class="st2" x1="434.89" y1="371.13" x2="500.46" y2="462.45"/>
<line class="st9" x1="1020.75" y1="1067.83" x2="1018.78" y2="1062.92"/>
<line class="st4" x1="457.4" y1="483.83" x2="612.79" y2="483.99"/>
<text transform="matrix(1 0 0 1 498.3558 441.4289)" class="st5 st6">1</text>
<text transform="matrix(1 0 0 1 557.7196 380.1379)" class="st5 st6">2</text>
<text transform="matrix(1 0 0 1 719.1801 443.4308)" class="st5 st6">4</text>
<text transform="matrix(1 0 0 1 720.1991 529.9758)" class="st5 st6">5</text>
<text transform="matrix(1 0 0 1 656.7548 598.5275)" class="st5 st6">6</text>
<text transform="matrix(1 0 0 1 561.0638 598.5275)" class="st5 st6">7</text>
<text transform="matrix(1 0 0 1 498.3558 532.9709)" class="st7 st6">8</text>
<g>
	<g>
		<line class="st4" x1="608.15" y1="465.53" x2="607.65" y2="465.53"/>
		<line class="st10" x1="606.65" y1="465.53" x2="460.54" y2="465.53"/>
		<line class="st4" x1="460.04" y1="465.53" x2="459.54" y2="465.53"/>
		<g>
			<polygon points="607.16,464.08 612.58,465.53 607.16,466.99 			"/>
		</g>
		<g>
			<polygon points="460.53,464.08 455.11,465.53 460.53,466.99 			"/>
		</g>
	</g>
</g>
<line class="st2" x1="455.09" y1="475.89" x2="455.09" y2="455.18"/>
<line class="st4" x1="742.88" y1="479.4" x2="775.73" y2="443.69"/>
<line class="st11" x1="612.51" y1="483.88" x2="881.42" y2="483.86"/>
<text transform="matrix(1 0 0 1 712.0248 616.2814)"><tspan x="0" y="0" class="st7 st6">Circumfrential</tspan><tspan x="19.76" y="21.9" class="st7 st6">Elements</tspan></text>
<line class="st2" x1="713.85" y1="553.66" x2="737.65" y2="601.98"/>
<text transform="matrix(1 0 0 1 317.6146 489.008)"><tspan x="0" y="0" class="st7 st6">Quarte</tspan><tspan x="49.65" y="0" class="st7 st6">r</tspan><tspan x="55.36" y="0" class="st7 st6">-point</tspan><tspan x="15.52" y="21.9" class="st7 st6">Elements</tspan></text>
<text transform="matrix(1 0 0 1 406.7083 631.7336)"><tspan x="0" y="0" class="st7 st6">Brick</tspan><tspan x="-13.68" y="21.9" class="st7 st6">Elements</tspan></text>
<line class="st2" x1="460.58" y1="641.73" x2="562.23" y2="608.88"/>
<line class="st2" x1="449.63" y1="625.31" x2="579.6" y2="549.85"/>
<line class="st2" x1="422.02" y1="498.4" x2="598.64" y2="512.98"/>
</svg>
